# Blender v2.79 (sub 0) OBJ File: ''
# www.blender.org
mtllib Tower.mtl
o Cube.001_Cube.002
v -1.000000 0.012462 1.000000
v -0.486511 5.394838 0.486511
v -1.000000 0.012462 -1.000000
v -0.486511 5.394838 -0.486511
v 1.000000 0.012462 1.000000
v 0.486511 5.394838 0.486511
v 1.000000 0.012462 -1.000000
v 0.486511 5.394838 -0.486511
v -0.486511 5.394838 0.486511
v -0.486511 5.394838 -0.486511
v 0.486511 5.394838 -0.486511
v 0.486511 5.394838 0.486511
v -1.224714 5.597198 1.224714
v -1.224714 5.597198 -1.224714
v 1.224714 5.597198 -1.224714
v 1.224714 5.597198 1.224714
v -1.224714 6.201279 1.224714
v -1.224714 6.201279 -1.224714
v 1.224714 6.201279 -1.224714
v 1.224714 6.201279 1.224714
v -1.179301 6.201279 1.179301
v -1.179301 6.201279 -1.179301
v 1.179301 6.201279 -1.179301
v 1.179301 6.201279 1.179301
v -1.179301 5.730424 1.179301
v -1.179301 5.730424 -1.179301
v 1.179301 5.730424 -1.179301
v 1.179301 5.730424 1.179301
v -0.838779 5.730424 0.838779
v -0.838779 5.730424 -0.838779
v 0.838779 5.730424 -0.838779
v 0.838779 5.730424 0.838779
v -0.838779 6.648900 0.838779
v -0.838779 6.648900 -0.838779
v 0.838779 6.648900 -0.838779
v 0.838779 6.648900 0.838779
v -1.393719 6.638113 1.393719
v -1.393719 6.638113 -1.393719
v 1.393719 6.638113 -1.393719
v 1.393719 6.638113 1.393719
v 0.000000 7.580905 -0.000000
vt 0.240049 0.000000
vt 0.382018 0.511719
vt 0.191009 0.511719
vt 0.049040 0.000000
vt 0.191009 0.511719
vt 0.000000 0.511719
vt 0.714995 0.511719
vt 0.573026 0.000000
vt 0.764035 0.000000
vt 0.431058 0.000000
vt 0.573026 0.511719
vt 0.382018 0.511719
vt 0.764035 0.413565
vt 0.955044 0.223795
vt 0.955044 0.413565
vt 0.000000 0.000000
vt 0.000000 0.000000
vt 0.000000 0.000000
vt 0.695855 0.674088
vt 0.532425 0.744132
vt 0.602927 0.674088
vt 0.000000 0.000000
vt 0.000000 0.000000
vt 0.000000 0.000000
vt 0.000000 0.000000
vt 0.000000 0.000000
vt 0.911726 0.744132
vt 0.969402 0.976546
vt 0.911726 0.976546
vt 0.602927 0.581763
vt 0.766357 0.511719
vt 0.695855 0.581763
vt 0.766357 0.744132
vt 0.532425 0.511719
vt 0.766357 0.976546
vt 0.762019 0.748441
vt 0.766357 0.744132
vt 0.854050 0.744132
vt 0.911726 0.744132
vt 0.969402 0.744132
vt 0.911726 0.511719
vt 0.969402 0.511719
vt 0.854050 0.511719
vt 0.911726 0.744132
vt 0.854050 0.744132
vt 1.000000 0.447591
vt 0.955044 0.223795
vt 1.000000 0.223795
vt 0.532425 0.744132
vt 0.536763 0.972237
vt 0.532425 0.976546
vt 0.536763 0.748441
vt 0.762020 0.972237
vt 0.989292 0.223795
vt 0.956771 0.032310
vt 0.989292 0.000000
vt 0.265300 1.000000
vt 0.220344 0.776205
vt 0.265300 0.776205
vt 0.310256 1.000000
vt 0.265300 1.000000
vt 0.175388 0.776205
vt 0.220344 1.000000
vt 0.175388 1.000000
vt 0.764035 0.000000
vt 0.796557 0.191485
vt 0.764035 0.223795
vt 0.796557 0.032310
vt 0.956771 0.191485
vt 0.332977 0.000000
vt 0.141968 0.000000
vt 0.622067 0.511719
vt 0.523986 0.000000
vt 0.764035 0.223795
vt 0.969402 0.744132
vt 0.854050 0.976546
vt 0.911726 0.511719
vt 0.955044 0.447591
vt 0.310256 0.776205
vt 0.220344 0.776205
vt 0.213213 0.564374
vt 0.266213 0.776204
vt 0.213213 0.723549
vt 0.266213 0.511719
vt 0.532425 0.511719
vt 0.399319 0.643962
vt 0.052999 0.723549
vt 0.000000 0.511719
vt 0.052999 0.564374
vt 0.000000 0.776205
vt 0.532425 0.776204
vt 0.087694 0.935379
vt 0.000000 0.776205
vt 0.087694 0.776205
vt 0.854050 0.830068
vt 0.766357 0.670894
vt 0.854050 0.670894
vt 0.766357 0.511719
vt 0.854050 0.670894
vt 0.766357 0.670894
vt 0.087694 0.776205
vt 0.175388 0.935379
vt 0.000000 0.935379
vt 0.766357 0.830068
vt 0.854050 0.511719
vt 0.175388 0.776205
vn -0.9955 0.0950 0.0000
vn 0.0000 0.0950 -0.9955
vn 0.9955 0.0950 0.0000
vn 0.0000 0.0950 0.9955
vn 0.0000 -1.0000 0.0000
vn 0.0000 0.0000 1.0000
vn 0.0000 -0.9644 0.2644
vn 0.0000 0.0000 -1.0000
vn 0.0000 -0.9644 -0.2644
vn 0.2644 -0.9644 0.0000
vn -0.2644 -0.9644 0.0000
vn 0.0000 1.0000 0.0000
vn 1.0000 0.0000 0.0000
vn -1.0000 0.0000 0.0000
vn 0.0000 -0.9998 -0.0194
vn 0.5603 0.8283 0.0000
vn 0.0000 -0.9998 0.0194
vn -0.0194 -0.9998 0.0000
vn 0.0194 -0.9998 0.0000
vn -0.5603 0.8283 0.0000
vn 0.0000 0.8283 0.5603
vn 0.0000 0.8283 -0.5603
usemtl Main.001
s off
f 2/1/1 3/2/1 1/3/1
f 4/4/2 7/5/2 3/6/2
f 8/7/3 5/8/3 7/9/3
f 6/10/4 1/11/4 5/12/4
f 7/13/5 1/14/5 3/15/5
f 6/16/6 11/17/6 12/18/6
f 12/19/7 13/20/7 9/21/7
f 4/22/6 9/23/6 10/24/6
f 2/25/6 12/18/6 9/23/6
f 8/26/6 10/24/6 11/17/6
f 14/27/8 19/28/8 15/29/8
f 10/30/9 15/31/9 11/32/9
f 11/32/10 16/33/10 12/19/10
f 9/21/11 14/34/11 10/30/11
f 19/35/12 24/36/12 20/37/12
f 15/29/13 20/38/13 16/39/13
f 13/40/14 18/41/14 14/42/14
f 16/43/6 17/44/6 13/45/6
f 24/46/8 25/47/8 21/48/8
f 17/49/12 22/50/12 18/51/12
f 20/37/12 21/52/12 17/49/12
f 18/51/12 23/53/12 19/35/12
f 27/54/12 32/55/12 28/56/12
f 22/57/6 27/58/6 23/59/6
f 23/59/14 28/60/14 24/61/14
f 21/62/13 26/63/13 22/64/13
f 25/65/12 30/66/12 26/67/12
f 28/56/12 29/68/12 25/65/12
f 26/67/12 31/69/12 27/54/12
f 2/1/1 4/70/1 3/2/1
f 4/4/2 8/71/2 7/5/2
f 8/7/3 6/72/3 5/8/3
f 6/10/4 2/73/4 1/11/4
f 7/13/5 5/74/5 1/14/5
f 6/16/6 8/26/6 11/17/6
f 12/19/7 16/33/7 13/20/7
f 4/22/6 2/25/6 9/23/6
f 2/25/6 6/16/6 12/18/6
f 8/26/6 4/22/6 10/24/6
f 14/27/8 18/75/8 19/28/8
f 10/30/9 14/34/9 15/31/9
f 11/32/10 15/31/10 16/33/10
f 9/21/11 13/20/11 14/34/11
f 19/35/12 23/53/12 24/36/12
f 15/29/13 19/76/13 20/38/13
f 13/40/14 17/44/14 18/41/14
f 16/43/6 20/77/6 17/44/6
f 24/46/8 28/78/8 25/47/8
f 17/49/12 21/52/12 22/50/12
f 20/37/12 24/36/12 21/52/12
f 18/51/12 22/50/12 23/53/12
f 27/54/12 31/69/12 32/55/12
f 22/57/6 26/63/6 27/58/6
f 23/59/14 27/79/14 28/60/14
f 21/62/13 25/80/13 26/63/13
f 25/65/12 29/68/12 30/66/12
f 28/56/12 32/55/12 29/68/12
f 26/67/12 30/66/12 31/69/12
usemtl Roof.001
f 36/81/15 37/82/15 33/83/15
f 40/84/16 39/85/16 41/86/16
f 34/87/17 39/88/17 35/89/17
f 35/89/18 40/84/18 36/81/18
f 33/83/19 38/90/19 34/87/19
f 38/91/20 37/82/20 41/86/20
f 37/82/21 40/84/21 41/86/21
f 39/85/22 38/91/22 41/86/22
f 36/81/15 40/84/15 37/82/15
f 34/87/17 38/90/17 39/88/17
f 35/89/18 39/88/18 40/84/18
f 33/83/19 37/82/19 38/90/19
usemtl Empty.001
f 31/92/13 36/93/13 32/94/13
f 29/95/14 34/96/14 30/97/14
f 32/98/6 33/99/6 29/100/6
f 30/101/8 35/102/8 31/92/8
f 31/92/13 35/103/13 36/93/13
f 29/95/14 33/104/14 34/96/14
f 32/98/6 36/105/6 33/99/6
f 30/101/8 34/106/8 35/102/8
